<?xml version="1.0" encoding="UTF-8" standalone="no"?>
<svg
   height="1000"
   width="800"
   viewBox="0 0 512 640"
   version="1.1"
   xmlns="http://www.w3.org/2000/svg">
<g
   id="g677"
   transform="translate(0,61.44)">
	<path
   style="fill:#b12621"
   d="M 445.793,512 H 101.517 c -19.421,0 -35.31,-15.89 -35.31,-35.31 v -8.828 c 0,-19.421 15.89,-35.31 35.31,-35.31 h 344.276 z"
   id="path665" />
	<path
   style="fill:#dd342e"
   d="M 392.828,17.655 C 392.828,9.251 386.887,0 378.624,0 L 79.501,61.678 c -7.724,1.527 -13.294,8.307 -13.294,16.19 v 389.994 c 0,-19.421 15.89,-35.31 35.31,-35.31 l 278.978,-42.266 c 7.089,-1.077 12.332,-7.177 12.332,-14.345 V 17.655 Z"
   id="path667" />
	<path
   style="fill:#b12621"
   d="m 348.693,163.242 -233.869,48.384 c -6.868,1.421 -13.303,-3.822 -13.303,-10.831 v -83.332 c 0,-5.244 3.681,-9.772 8.819,-10.84 L 344.209,58.239 c 6.868,-1.421 13.312,3.822 13.312,10.84 v 83.324 c 0,5.252 -3.69,9.78 -8.828,10.839"
   id="path669" />
	<g
   id="g675">
		<path
   style="fill:#edebda"
   d="m 66.207,485.517 c 0,-2.039 0.106,-3.981 0.3,-5.853 v 0 c -0.194,1.872 -0.3,3.814 -0.3,5.853"
   id="path671" />
		<path
   style="fill:#edebda"
   d="M 392.828,52.966 V 375.94 c 0,7.168 -5.244,13.268 -12.332,14.345 L 101.518,432.551 H 445.794 V 52.966 Z"
   id="path673" />
	</g>
</g>
</svg>
