<?xml version="1.0" encoding="UTF-8" standalone="no"?>
<svg
   width="800"
   height="1000"
   viewBox="0 0 512 640"
   version="1.1"
   xmlns="http://www.w3.org/2000/svg">

  <path
     fill="#f9e7c0"
     d="M 466.89748,581.12 H 59.632147 a 9.5326019,8.182 0 0 1 -9.532601,-8.182 V 77.302 A 9.5326019,8.182 0 0 1 59.632147,69.12 H 467.20389 a 9.2273536,7.92 0 0 1 9.22735,7.92 v 495.898 a 9.533767,8.183 0 0 1 -9.53376,8.182 z"
     id="path297"
     style="stroke-width:1.07938" />
  <path
     fill="#597b91"
     d="M 386.69407,161.521 H 104.42792 c -7.161685,0 -12.967228,-4.983 -12.967228,-11.13 0,-6.147 5.805543,-11.13 12.967228,-11.13 H 386.6929 c 7.16052,0 12.96723,4.983 12.96723,11.13 0,6.147 -5.80555,11.13 -12.96606,11.13 z m -47.29835,61.723 c 0,-6.147 -5.80554,-11.13 -12.96723,-11.13 H 104.42792 c -7.161685,0 -12.967228,4.983 -12.967228,11.13 0,6.147 5.805543,11.13 12.967228,11.13 h 222.00057 c 7.16052,0 12.96723,-4.983 12.96723,-11.13 z m -112.93605,72.854 c 0,-6.147 -5.80554,-11.13 -12.96723,-11.13 H 104.42792 c -7.161685,0 -12.967228,4.983 -12.967228,11.13 0,6.147 5.805543,11.13 12.967228,11.13 h 109.06452 c 7.16169,-0.001 12.96723,-4.983 12.96723,-11.13 z m 127.05204,72.853 c 0,-6.146 -5.80554,-11.13 -12.96723,-11.13 H 104.42792 c -7.161685,0 -12.967228,4.983 -12.967228,11.13 0,6.147 5.805543,11.13 12.967228,11.13 h 236.11656 c 7.16169,0 12.96723,-4.983 12.96723,-11.13 z m 58.11835,-72.853 c 0,-6.147 -5.80555,-11.13 -12.96723,-11.13 H 279.37365 c -7.16052,0 -12.96723,4.983 -12.96723,11.13 0,6.147 5.80555,11.13 12.96723,11.13 h 119.28918 c 7.16052,-0.001 12.96723,-4.983 12.96723,-11.13 z M 304.0009,441.805 c 0,-6.146 -5.80554,-11.13 -12.96723,-11.13 H 104.42792 c -7.161685,0 -12.967228,4.983 -12.967228,11.13 0,6.147 5.805543,11.13 12.967228,11.13 h 186.60575 c 7.16169,-10e-4 12.96723,-4.984 12.96723,-11.13 z m 77.48181,72.853 c 0,-6.146 -5.80555,-11.13 -12.96723,-11.13 H 104.42792 c -7.161685,0 -12.967228,4.983 -12.967228,11.13 0,6.147 5.805543,11.13 12.967228,11.13 h 264.08756 c 7.16168,0 12.96723,-4.983 12.96723,-11.13 z m 30.14735,-72.853 c 0,-6.146 -5.80555,-11.13 -12.96723,-11.13 h -60.2947 c -7.16052,0 -12.96723,4.983 -12.96723,11.13 0,6.147 5.80555,11.13 12.96723,11.13 h 60.2947 c 7.16052,-10e-4 12.96723,-4.984 12.96723,-11.13 z"
     id="path299"
     style="stroke-width:1.07938;fill:#828282;fill-opacity:1" />
  <path
     d="m 443.97173,133.59713 a 1.6664541,1.7815816 0 0 1 -0.88322,-0.2708 L 417.30847,116.102 391.52843,133.3299 a 1.6664541,1.7815816 0 1 1 -2.54968,-1.51435 V 56.987346 a 1.6664541,1.7815816 0 0 1 1.66645,-1.781583 h 53.32653 a 1.6664541,1.7815816 0 0 1 1.66646,1.781583 v 74.826424 a 1.6664541,1.7815816 0 0 1 -1.66646,1.78158 z"
     fill="#e86c60"
     id="path2"
     style="stroke-width:0.0807686" />
</svg>
