<?xml version="1.0" encoding="UTF-8" standalone="no"?>
<svg
   fill="none"
   viewBox="0 0 16 16"
   version="1.1"
   xmlns="http://www.w3.org/2000/svg">
  <path
     d="M 14.5,13.5 C 14.5072,6.2418783 14.51423,0.94329984 14.52459,0.04172099 L 1.5,0 V 13.5 C 1.5,14.880712 2.6192881,16 4,16 h 8 c 1.380712,0 2.5,-1.119288 2.5,-2.5 m -1.5,0 C 12.964774,9.2272591 13.023516,5.3650588 12.964798,1.5352021 9.626271,1.51466 5.9340576,1.5 3,1.5 v 12 c 0,0.552285 0.4477153,1 1,1 h 8 c 0.552285,0 1,-0.447715 1,-1 M 4.51,5.6 V 6.85 L 9.0758931,6.7926336 10.259727,5.5687092 C 8.3083372,5.5924615 6.4615347,5.5940519 4.51,5.6 Z m 0,3 2.8336789,-0.016017 C 6.4598914,9.4829218 6.8376956,9.1104462 6.144569,9.8266082 L 4.5,9.85 Z m 0,3 v 1.25 h 7.12 V 11.6 Z M 7.2990287,11.360903 6.0682595,10.024202 12.977285,2.7561096 c 0.01844,2.135172 0.0034,0.2370162 0.02082,2.3361095 C 11.091201,7.1747703 9.197338,9.2702186 7.2990287,11.360903 Z M 9.919174,8.557087 8.7657368,9.8157277 11.593821,9.7826474 11.547038,8.515366 Z M 4.4556454,2.75 V 4 H 11.575645 V 2.75 Z m 10.0503816,0.8066457 0.01131,-2.519372 0.250201,-0.33650112 c 1.430456,0.96669922 -0.271514,-0.19024242 1.24081,0.83764192 z"
     clip-rule="evenodd"
     fill="#666666"
     fill-rule="evenodd"/>
</svg>
