<?xml version="1.0" encoding="UTF-8" standalone="no"?>
<svg
   height="1000"
   width="800"
   version="1.1"
   viewBox="0 0 512 640"
   xmlns="http://www.w3.org/2000/svg">
<g
   id="g643"
   transform="translate(0,62.72)"><g
     id="g477">
	<path
   style="fill:#b2c4d0"
   d="m 72,64 h 368 c 8.84,0 16,7.16 16,16 v 32 c 0,8.84 -7.16,16 -16,16 H 72 c -8.84,0 -16,-7.16 -16,-16 V 80 c 0,-8.84 7.16,-16 16,-16 z"
   id="path473" />
	<path
   style="fill:#b2c4d0"
   d="m 80,128 v 352 c 0,17.672 14.328,32 32,32 h 288 c 17.672,0 32,-14.328 32,-32 V 128 Z"
   id="path475" />
</g><g
     id="g489">
	<path
   style="fill:#8faebf"
   d="m 152,448 c -8.84,0 -16,-7.16 -16,-16 V 224 c 0,-8.84 7.16,-16 16,-16 8.84,0 16,7.16 16,16 v 208 c 0,8.84 -7.16,16 -16,16 z"
   id="path479" />
	<path
   style="fill:#8faebf"
   d="m 224,448 c -8.84,0 -16,-7.16 -16,-16 V 224 c 0,-8.84 7.16,-16 16,-16 8.84,0 16,7.16 16,16 v 208 c 0,8.84 -7.16,16 -16,16 z"
   id="path481" />
	<path
   style="fill:#8faebf"
   d="m 288,448 c -8.84,0 -16,-7.16 -16,-16 V 224 c 0,-8.84 7.16,-16 16,-16 8.84,0 16,7.16 16,16 v 208 c 0,8.84 -7.16,16 -16,16 z"
   id="path483" />
	<path
   style="fill:#8faebf"
   d="m 360,448 c -8.84,0 -16,-7.16 -16,-16 V 224 c 0,-8.84 7.16,-16 16,-16 8.84,0 16,7.16 16,16 v 208 c 0,8.84 -7.16,16 -16,16 z"
   id="path485" />
	<path
   style="fill:#8faebf"
   d="M 320,0 H 192 c -4.416,0 -8,3.584 -8,8 v 56 h 24 V 24 h 96 v 40 h 24 V 8 c 0,-4.416 -3.584,-8 -8,-8 z"
   id="path487" />
</g><g
     id="g499">
	<path
   style="fill:#7b9cb1"
   d="m 168,224 c 0,-8.84 -7.16,-16 -16,-16 -8.84,0 -16,7.16 -16,16 v 208 c 0,8.84 7.16,16 16,16 V 240 c 0,-8.84 7.16,-16 16,-16 z"
   id="path491" />
	<path
   style="fill:#7b9cb1"
   d="m 240,224 c 0,-8.84 -7.16,-16 -16,-16 -8.84,0 -16,7.16 -16,16 v 208 c 0,8.84 7.16,16 16,16 V 240 c 0,-8.84 7.16,-16 16,-16 z"
   id="path493" />
	<path
   style="fill:#7b9cb1"
   d="m 304,224 c 0,-8.84 -7.16,-16 -16,-16 -8.84,0 -16,7.16 -16,16 v 208 c 0,8.84 7.16,16 16,16 V 240 c 0,-8.84 7.16,-16 16,-16 z"
   id="path495" />
	<path
   style="fill:#7b9cb1"
   d="m 376,224 c 0,-8.84 -7.16,-16 -16,-16 -8.84,0 -16,7.16 -16,16 v 208 c 0,8.84 7.16,16 16,16 V 240 c 0,-8.84 7.16,-16 16,-16 z"
   id="path497" />
</g><path
     style="fill:#8faebf"
     d="m 80,128 v 0 c 0,8.84 7.16,16 16,16 h 304 c 8.84,0 16,7.16 16,16 v 320 c 0,8.84 -7.16,16 -16,16 H 128 c -8.84,0 -16,7.16 -16,16 h 288 c 17.672,0 32,-14.328 32,-32 V 128 Z"
     id="path501" /><path
     style="fill:#c9d5dd"
     d="m 72,64 h 368 v 0 0 c 0,8.84 -7.16,16 -16,16 H 88 C 79.16,80 72,72.84 72,64 Z"
     id="path503" /></g>
</svg>
