<svg xmlns="http://www.w3.org/2000/svg" width="28" height="28" fill="none" viewBox="0 0 28 28"><rect width="28" height="28" fill="#fff" rx="4"/><rect width="27" height="27" x="0.5" y="0.5" stroke="#DEDEDE" stroke-opacity="0.4" rx="3.5"/><g clip-path="url(#a)"><path fill="#0F1689" fill-rule="evenodd" d="M5.539 11.863h1.127v1.527h1.362v-1.527h1.127v4.288H8.028v-1.635H6.666v1.635H5.539zm4.91 4.288v-4.288h2.667v.932h-1.54v.698h1.362v.949h-1.362v.789h1.54v.92zm3.903 0v-4.288h1.127v3.156h1.545v1.132zm4.418-4.288 1.751 1.59 1.745-1.59h.51v4.288h-1.133V13.95l-1.122 1.023-1.127-1.017v2.195H18.26v-4.288z" clip-rule="evenodd"/><mask id="b" width="19" height="11" x="5" y="17" maskUnits="userSpaceOnUse" style="mask-type:luminance"><path fill="#fff" fill-rule="evenodd" d="M5.555 27.02h17.852v-9.11H5.555z" clip-rule="evenodd"/></mask><g fill="#0F1689" fill-rule="evenodd" clip-rule="evenodd" mask="url(#b)"><path d="M18.298 18.85c.324-.226 1.07.281 1.667 1.134s.819 1.727.495 1.954-1.07-.28-1.667-1.133-.819-1.728-.495-1.955m-7.713 0c-.324-.226-1.07.281-1.668 1.134s-.818 1.727-.494 1.954 1.07-.28 1.667-1.133.818-1.728.495-1.955m3.852 1.335c-.395 0-.715.844-.715 1.885s.32 1.885.715 1.885c.396 0 .716-.844.716-1.885s-.32-1.885-.716-1.885"/></g><mask id="c" width="19" height="11" x="5" y="17" maskUnits="userSpaceOnUse" style="mask-type:luminance"><path fill="#fff" fill-rule="evenodd" d="M5.555 27.02h17.852v-9.11H5.555z" clip-rule="evenodd"/></mask><g mask="url(#c)"><path stroke="#0F1689" stroke-width="1.1396" d="M19.883 17.157a6.56 6.56 0 0 1-5.627 3.194 6.56 6.56 0 0 1-5.53-3.039m.125-7.36a6.56 6.56 0 0 1 5.405-2.85 6.56 6.56 0 0 1 5.412 2.86"/></g><mask id="d" width="19" height="10" x="5" y="1" maskUnits="userSpaceOnUse" style="mask-type:luminance"><path fill="#fff" fill-rule="evenodd" d="M5.555 1.094h17.852v9.11H5.555z" clip-rule="evenodd"/></mask><g fill="#0F1689" fill-rule="evenodd" clip-rule="evenodd" mask="url(#d)"><path d="M18.298 9.123c.324.227 1.07-.28 1.667-1.133s.819-1.728.495-1.954c-.323-.227-1.07.28-1.667 1.133s-.819 1.728-.495 1.954m-7.713 0c-.324.227-1.07-.28-1.668-1.133S8.1 6.262 8.423 6.036c.323-.227 1.07.28 1.667 1.133s.818 1.728.495 1.954m3.852-1.335c-.395 0-.715-.843-.715-1.884s.32-1.885.715-1.885c.396 0 .716.844.716 1.885s-.32 1.884-.716 1.884"/></g><mask id="e" width="19" height="10" x="5" y="1" maskUnits="userSpaceOnUse" style="mask-type:luminance"><path fill="#fff" fill-rule="evenodd" d="M5.555 1.094h17.852v9.11H5.555z" clip-rule="evenodd"/></mask><g mask="url(#e)"><path stroke="#0F1689" stroke-width="1.1396" d="M19.883 10.817a6.56 6.56 0 0 0-5.627-3.195 6.56 6.56 0 0 0-5.53 3.04m.125 7.36a6.56 6.56 0 0 0 5.405 2.85 6.56 6.56 0 0 0 5.412-2.86"/></g></g><defs><clipPath id="a"><path fill="#fff" d="M4.5 4h19v20h-19z"/></clipPath></defs></svg>