<svg
  xmlns="http://www.w3.org/2000/svg"
  width="30"
  height="30"
  fill="none"
  viewBox="0 0 30 30"
>
  <path
    fillRule="evenodd"
    d="M15 30c8.284 0 15-6.716 15-15 0-8.284-6.716-15-15-15C6.716 0 0 6.716 0 15c0 8.284 6.716 15 15 15zm0-1.875c7.249 0 13.125-5.876 13.125-13.125S22.249 1.875 15 1.875 1.875 7.751 1.875 15 7.751 28.125 15 28.125zm.464-3.802a1.36 1.36 0 01-1.003-.4 1.334 1.334 0 01-.399-.98c0-.389.133-.716.4-.982a1.36 1.36 0 011.002-.398c.403 0 .733.133.992.398.259.266.388.593.388.982 0 .388-.133.715-.399.98a1.334 1.334 0 01-.98.4zm1.411-18.698h-2.813V18.75h2.813V5.625z"
    clip-rule="evenodd" fill="#666" fill-rule="evenodd"
  />
</svg>
