<svg
  xmlns="http://www.w3.org/2000/svg"
  width="30"
  height="30"
  fill="none"
  viewBox="0 0 30 30"
>
  <path
    fillRule="evenodd"
    d="M30 15c0 8.284-6.716 15-15 15-8.284 0-15-6.716-15-15C0 6.716 6.716 0 15 0c8.284 0 15 6.716 15 15zm-1.875 0c0 7.249-5.876 13.125-13.125 13.125S1.875 22.249 1.875 15 7.751 1.875 15 1.875 28.125 7.751 28.125 15zm-7.159-7.292l1.326 1.326L16.326 15l5.966 5.966-1.326 1.326L15 16.326l-5.966 5.966-1.326-1.326L13.674 15 7.708 9.034l1.326-1.326L15 13.674l5.966-5.966z"
    clip-rule="evenodd" fill="#666" fill-rule="evenodd"
  />
</svg>
