<?xml version="1.0" encoding="UTF-8" standalone="no"?>
<svg
   height="800"
   width="1000"
   version="1.1"
   viewBox="0 0 640 512"
   xmlns="http://www.w3.org/2000/svg">
<g
   id="g26">
	<g
   id="g5000"
   transform="translate(57.6)"><path
     style="fill:#8c5d37"
     d="M 0,464.442 H 512 V 411.476 H 0 Z"
     id="path2" /><path
     style="fill:#ecba16"
     d="m 282.483,411.477 h -256 L 36.661,394.51 c 10.037,-16.728 10.037,-37.614 0,-54.343 L 26.483,323.2 h 256 c 24.373,0 44.138,19.765 44.138,44.138 0,24.374 -19.765,44.139 -44.138,44.139"
     id="path4" /><path
     style="fill:#ed8a19"
     d="M 282.483,376.166 H 88.276 c -4.882,0 -8.828,-3.955 -8.828,-8.828 0,-4.873 3.946,-8.828 8.828,-8.828 h 194.207 c 4.882,0 8.828,3.955 8.828,8.828 -10e-4,4.874 -3.947,8.828 -8.828,8.828"
     id="path6" /><path
     style="fill:#a2d672"
     d="M 256,323.201 H 0 l 10.178,-16.967 c 10.037,-16.728 10.037,-37.614 0,-54.343 L 0,234.925 h 256 c 24.373,0 44.138,19.765 44.138,44.138 0,24.373 -19.765,44.138 -44.138,44.138"
     id="path8" /><path
     style="fill:#88c057"
     d="M 256,287.891 H 61.793 c -4.882,0 -8.828,-3.955 -8.828,-8.828 0,-4.873 3.946,-8.828 8.828,-8.828 H 256 c 4.882,0 8.828,3.955 8.828,8.828 0,4.873 -3.946,8.828 -8.828,8.828"
     id="path10" /><path
     style="fill:#25b99a"
     d="m 282.483,234.925 h -256 l 10.178,-16.967 c 10.037,-16.728 10.037,-37.614 0,-54.343 L 26.483,146.648 h 256 c 24.373,0 44.138,19.765 44.138,44.138 0,24.373 -19.765,44.139 -44.138,44.139"
     id="path12" /><path
     style="fill:#199172"
     d="M 282.483,199.615 H 88.276 c -4.882,0 -8.828,-3.955 -8.828,-8.828 0,-4.873 3.946,-8.828 8.828,-8.828 h 194.207 c 4.882,0 8.828,3.955 8.828,8.828 -10e-4,4.873 -3.947,8.828 -8.828,8.828"
     id="path16" /><g
     id="g4970"><path
       style="fill:#2c58dc;fill-opacity:1"
       d="M 381.015,47.558 472.407,388.629 387.133,411.475 295.75,70.404 Z"
       id="path14" /><path
       style="fill:#2126b1;fill-opacity:1"
       d="m 403.863,132.825 -85.266,22.846 -9.145,-34.11 85.274,-22.846 z"
       id="path18" /><path
       style="fill:#2126b1;fill-opacity:1"
       d="m 458.696,337.468 -85.266,22.846 -9.145,-34.11 85.274,-22.846 z"
       id="path20" /><path
       style="fill:#2126b1;fill-opacity:1"
       d="m 397.775,289.511 c -3.893,0 -7.468,-2.604 -8.519,-6.55 L 361.846,180.64 c -1.262,-4.714 1.536,-9.551 6.241,-10.814 4.705,-1.271 9.551,1.536 10.805,6.241 l 27.418,102.329 c 1.253,4.705 -1.536,9.551 -6.241,10.805 -0.766,0.213 -1.534,0.31 -2.294,0.31"
       id="path22" /></g></g>
</g>
</svg>
