<?xml version="1.0" encoding="UTF-8" standalone="no"?>
<svg
   height="1000"
   width="800"
   version="1.1"
   viewBox="0 0 512 640"
   xmlns="http://www.w3.org/2000/svg">
   <path
      style="fill:#cec9ae;fill-opacity:1"
      d="M 445.793,573.44 H 101.517 c -19.421,0 -35.31,-15.89 -35.31,-35.31 v -8.828 c 0,-19.421 15.89,-35.31 35.31,-35.31 h 344.276 z"
      id="path2667" />
   <path
      style="fill:#2c58dc;fill-opacity:1"
      d="m 392.828,79.095 c 0,-8.404 -5.941,-17.655 -14.204,-17.655 L 79.501,123.118 c -7.724,1.527 -13.294,8.307 -13.294,16.19 v 389.994 c 0,-19.421 15.89,-35.31 35.31,-35.31 l 278.978,-42.266 c 7.089,-1.077 12.332,-7.177 12.332,-14.345 V 79.095 Z"
      id="path2669" />
   <path
      style="fill:#2c2cdc;fill-opacity:1"
      d="m 348.693,224.682 -233.869,48.384 c -6.868,1.421 -13.303,-3.822 -13.303,-10.831 v -83.332 c 0,-5.244 3.681,-9.772 8.819,-10.84 l 233.869,-48.384 c 6.868,-1.421 13.312,3.822 13.312,10.84 v 83.324 c 0,5.252 -3.69,9.78 -8.828,10.839"
      id="path2671" />
   <g
      id="g2677"
      transform="translate(0,61.44)"
      style="stroke-width:0.99968;stroke-dasharray:none">
      <path
         style="fill:#edebda;stroke-width:0.99968;stroke-dasharray:none"
         d="m 66.207,485.517 c 0,-2.039 0.106,-3.981 0.3,-5.853 v 0 c -0.194,1.872 -0.3,3.814 -0.3,5.853"
         id="path2673" />
      <path
         style="fill:#edebda;stroke-width:0.99968;stroke-dasharray:none"
         d="M 392.828,52.966 V 375.94 c 0,7.168 -5.244,13.268 -12.332,14.345 L 101.518,432.551 H 445.794 V 52.966 Z"
         id="path2675" />
   </g>
</svg>