<?xml version="1.0" encoding="UTF-8" standalone="no"?>
<svg
   height="1000"
   width="1000"
   version="1.1"
   viewBox="0 0 640 640"
   xmlns="http://www.w3.org/2000/svg">

  <g
     id="g468">
    <g
       id="g362"
       transform="translate(-0.95878883,-17.361411)">
      <path
         style="fill:#2c58dc;fill-opacity:1;stroke-width:1.04845"
         d="M 38.433916,96.883 V 529.435 H 232.50865 c 31.33301,5.703 59.46391,12.447 79.42519,35.151 l 7.908,8.986 7.908,-8.986 c 19.96018,-22.705 48.09218,-29.449 79.42519,-35.151 H 601.24976 V 96.883 h -38.8145 V 485.297 H 407.17503 c -31.33301,5.703 -59.46391,12.447 -79.42519,35.151 l -7.908,8.986 -7.908,-8.986 C 291.97366,497.743 263.84166,490.999 232.50865,485.297 H 77.248423 V 96.883 Z"
         id="path3541" />
      <path
         style="fill:#2c2cdc;fill-opacity:1;stroke-width:0.972495"
         d="m 319.84184,573.7709 c -5.35664,0 -9.70418,-3.40271 -9.70418,-7.59523 v -37.97444 c 0,-4.19252 4.34754,-7.59523 9.70418,-7.59523 5.35664,0 9.70418,3.40271 9.70418,7.59523 v 37.97444 c 0,4.19252 -4.34754,7.59523 -9.70418,7.59523"
         id="path3545" />
    </g>
    <path
       style="fill:#edebda;stroke-width:1.0881"
       d="m 319.33822,529.434 -8.51746,-8.986 C 289.32228,497.743 259.03284,490.999 225.27437,485.297 H 58.048423 V 70.4 H 225.27318 c 40.40645,0 94.06504,18.838 94.06504,52.966 z"
       id="path3535" />
    <path
       style="fill:#cec9ae;stroke-width:1.0881"
       d="m 319.33822,529.434 8.51746,-8.986 c 21.49849,-22.705 51.78793,-29.449 85.5464,-35.151 H 580.62803 V 70.4 h -188.1289 c -40.40526,0 -73.16091,27.666 -73.16091,61.793 z"
       id="path3537" />
    <path
       style="fill:#2c58dc;fill-opacity:1;stroke-width:1.0881"
       d="m 320.17055,123.366 h -0.83588 v 8.828 c -0.001,-3.002 0.34453,-5.942 0.83588,-8.828"
       id="path3539" />
    <g
       id="g3563"
       transform="matrix(1.1839676,0,0,1,16.242529,70.4)">
      <path
         style="fill:#cec9ae"
         d="m 123.586,88.276 h -35.31 c -4.873,0 -8.828,-3.955 -8.828,-8.828 0,-4.873 3.955,-8.828 8.828,-8.828 h 35.31 c 4.873,0 8.828,3.955 8.828,8.828 0,4.873 -3.955,8.828 -8.828,8.828"
         id="path3547" />
      <path
         style="fill:#cec9ae"
         d="m 211.862,88.276 h -52.966 c -4.873,0 -8.828,-3.955 -8.828,-8.828 0,-4.873 3.955,-8.828 8.828,-8.828 h 52.966 c 4.873,0 8.828,3.955 8.828,8.828 0,4.873 -3.955,8.828 -8.828,8.828"
         id="path3549" />
      <path
         style="fill:#cec9ae"
         d="m 211.862,176.552 h -52.966 c -4.873,0 -8.828,-3.955 -8.828,-8.828 0,-4.873 3.955,-8.828 8.828,-8.828 h 52.966 c 4.873,0 8.828,3.955 8.828,8.828 0,4.873 -3.955,8.828 -8.828,8.828"
         id="path3551" />
      <path
         style="fill:#cec9ae"
         d="M 158.897,132.414 H 88.276 c -4.873,0 -8.828,-3.955 -8.828,-8.828 0,-4.873 3.955,-8.828 8.828,-8.828 h 70.621 c 4.873,0 8.828,3.955 8.828,8.828 0,4.873 -3.956,8.828 -8.828,8.828"
         id="path3553" />
      <path
         style="fill:#cec9ae"
         d="m 123.586,176.552 h -35.31 c -4.873,0 -8.828,-3.955 -8.828,-8.828 0,-4.873 3.955,-8.828 8.828,-8.828 h 35.31 c 4.873,0 8.828,3.955 8.828,8.828 0,4.873 -3.955,8.828 -8.828,8.828"
         id="path3555" />
      <path
         style="fill:#cec9ae"
         d="M 211.862,220.69 H 88.276 c -4.873,0 -8.828,-3.955 -8.828,-8.828 0,-4.873 3.955,-8.828 8.828,-8.828 h 123.586 c 4.873,0 8.828,3.955 8.828,8.828 0,4.873 -3.955,8.828 -8.828,8.828"
         id="path3557" />
      <path
         style="fill:#cec9ae"
         d="M 158.897,344.276 H 88.276 c -4.873,0 -8.828,-3.955 -8.828,-8.828 0,-4.873 3.955,-8.828 8.828,-8.828 h 70.621 c 4.873,0 8.828,3.955 8.828,8.828 -0.001,4.873 -3.956,8.828 -8.828,8.828"
         id="path3559" />
      <path
         style="fill:#cec9ae"
         d="M 158.897,300.138 H 88.276 c -4.873,0 -8.828,-3.955 -8.828,-8.828 0,-4.873 3.955,-8.828 8.828,-8.828 h 70.621 c 4.873,0 8.828,3.955 8.828,8.828 -0.001,4.873 -3.956,8.828 -8.828,8.828"
         id="path3561" />
    </g>
    <path
       style="fill:#dd342e;stroke-width:0.835642"
       d="m 517.91849,148.436 -24.65697,-44.138 -24.65696,44.138 V 60.16 h 49.31463 v 88.276 z"
       id="path3565" />
    <g
       id="g3577"
       transform="matrix(1.1839676,0,0,1,16.242529,70.4)">
      <path
         style="fill:#cec9ae"
         d="m 211.862,132.414 h -17.655 c -4.873,0 -8.828,-3.955 -8.828,-8.828 0,-4.873 3.955,-8.828 8.828,-8.828 h 17.655 c 4.873,0 8.828,3.955 8.828,8.828 0,4.873 -3.955,8.828 -8.828,8.828"
         id="path3567" />
      <path
         style="fill:#cec9ae"
         d="m 211.862,300.138 h -17.655 c -4.873,0 -8.828,-3.955 -8.828,-8.828 0,-4.873 3.955,-8.828 8.828,-8.828 h 17.655 c 4.873,0 8.828,3.955 8.828,8.828 0,4.873 -3.955,8.828 -8.828,8.828"
         id="path3569" />
      <path
         style="fill:#cec9ae"
         d="m 123.586,256 h -35.31 c -4.873,0 -8.828,-3.955 -8.828,-8.828 0,-4.873 3.955,-8.828 8.828,-8.828 h 35.31 c 4.873,0 8.828,3.955 8.828,8.828 0,4.873 -3.955,8.828 -8.828,8.828"
         id="path3571" />
      <path
         style="fill:#cec9ae"
         d="m 211.862,256 h -52.966 c -4.873,0 -8.828,-3.955 -8.828,-8.828 0,-4.873 3.955,-8.828 8.828,-8.828 h 52.966 c 4.873,0 8.828,3.955 8.828,8.828 0,4.873 -3.955,8.828 -8.828,8.828"
         id="path3573" />
      <path
         style="fill:#cec9ae"
         d="m 211.862,335.448 c 0,4.873 -3.955,8.828 -8.828,8.828 -4.873,0 -8.828,-3.955 -8.828,-8.828 0,-4.873 3.955,-8.828 8.828,-8.828 4.873,10e-4 8.828,3.955 8.828,8.828"
         id="path3575" />
    </g>
    <g
       id="g3605"
       transform="matrix(1.1839676,0,0,1,16.242529,70.4)">
      <path
         style="fill:#edebda"
         d="m 317.793,88.276 h -17.655 c -4.873,0 -8.828,-3.955 -8.828,-8.828 0,-4.873 3.955,-8.828 8.828,-8.828 h 17.655 c 4.873,0 8.828,3.955 8.828,8.828 0,4.873 -3.955,8.828 -8.828,8.828"
         id="path3579" />
      <path
         style="fill:#edebda"
         d="m 335.448,132.414 h -35.31 c -4.873,0 -8.828,-3.955 -8.828,-8.828 0,-4.873 3.955,-8.828 8.828,-8.828 h 35.31 c 4.873,0 8.828,3.955 8.828,8.828 0,4.873 -3.955,8.828 -8.828,8.828"
         id="path3581" />
      <path
         style="fill:#edebda"
         d="m 423.724,132.414 h -52.966 c -4.873,0 -8.828,-3.955 -8.828,-8.828 0,-4.873 3.955,-8.828 8.828,-8.828 h 52.966 c 4.873,0 8.828,3.955 8.828,8.828 0,4.873 -3.955,8.828 -8.828,8.828"
         id="path3583" />
      <path
         style="fill:#edebda"
         d="m 353.103,264.828 h -52.966 c -4.873,0 -8.828,-3.955 -8.828,-8.828 0,-4.873 3.955,-8.828 8.828,-8.828 h 52.966 c 4.873,0 8.828,3.955 8.828,8.828 0,4.873 -3.955,8.828 -8.828,8.828"
         id="path3585" />
      <path
         style="fill:#edebda"
         d="m 423.724,264.828 h -35.31 c -4.873,0 -8.828,-3.955 -8.828,-8.828 0,-4.873 3.955,-8.828 8.828,-8.828 h 35.31 c 4.873,0 8.828,3.955 8.828,8.828 0,4.873 -3.955,8.828 -8.828,8.828"
         id="path3587" />
      <path
         style="fill:#edebda"
         d="m 423.724,176.552 h -70.621 c -4.873,0 -8.828,-3.955 -8.828,-8.828 0,-4.873 3.955,-8.828 8.828,-8.828 h 70.621 c 4.873,0 8.828,3.955 8.828,8.828 0,4.873 -3.955,8.828 -8.828,8.828"
         id="path3589" />
      <path
         style="fill:#edebda"
         d="m 317.793,176.552 h -17.655 c -4.873,0 -8.828,-3.955 -8.828,-8.828 0,-4.873 3.955,-8.828 8.828,-8.828 h 17.655 c 4.873,0 8.828,3.955 8.828,8.828 0,4.873 -3.955,8.828 -8.828,8.828"
         id="path3591" />
      <path
         style="fill:#edebda"
         d="m 423.724,220.69 h -17.655 c -4.873,0 -8.828,-3.955 -8.828,-8.828 0,-4.873 3.955,-8.828 8.828,-8.828 h 17.655 c 4.873,0 8.828,3.955 8.828,8.828 0,4.873 -3.955,8.828 -8.828,8.828"
         id="path3593" />
      <path
         style="fill:#edebda"
         d="m 370.759,220.69 h -70.621 c -4.873,0 -8.828,-3.955 -8.828,-8.828 0,-4.873 3.955,-8.828 8.828,-8.828 h 70.621 c 4.873,0 8.828,3.955 8.828,8.828 -10e-4,4.873 -3.956,8.828 -8.828,8.828"
         id="path3595" />
      <path
         style="fill:#edebda"
         d="m 423.724,308.966 h -70.621 c -4.873,0 -8.828,-3.955 -8.828,-8.828 0,-4.873 3.955,-8.828 8.828,-8.828 h 70.621 c 4.873,0 8.828,3.955 8.828,8.828 0,4.873 -3.955,8.828 -8.828,8.828"
         id="path3597" />
      <path
         style="fill:#edebda"
         d="m 317.793,308.966 h -17.655 c -4.873,0 -8.828,-3.955 -8.828,-8.828 0,-4.873 3.955,-8.828 8.828,-8.828 h 17.655 c 4.873,0 8.828,3.955 8.828,8.828 0,4.873 -3.955,8.828 -8.828,8.828"
         id="path3599" />
      <path
         style="fill:#edebda"
         d="m 370.759,353.103 h -70.621 c -4.873,0 -8.828,-3.955 -8.828,-8.828 0,-4.873 3.955,-8.828 8.828,-8.828 h 70.621 c 4.873,0 8.828,3.955 8.828,8.828 -10e-4,4.874 -3.956,8.828 -8.828,8.828"
         id="path3601" />
      <path
         style="fill:#edebda"
         d="m 423.724,344.276 c 0,4.873 -3.955,8.828 -8.828,8.828 -4.873,0 -8.828,-3.955 -8.828,-8.828 0,-4.873 3.955,-8.828 8.828,-8.828 4.873,0 8.828,3.955 8.828,8.828"
         id="path3603" />
    </g>
  </g>
</svg>
