<?xml version="1.0" encoding="UTF-8" standalone="no"?>
<svg
   height="1000"
   width="1000"
   version="1.1"
   viewBox="0 0 640 640"
   xmlns="http://www.w3.org/2000/svg">
<g
   id="g42"
   transform="translate(67.84,66.56)">
	<g
   id="g8">
		<path
   style="fill:#7383bf"
   d="m 420.89,78.102 c -3.185,0 -6.248,-1.753 -7.775,-4.799 -2.143,-4.287 -0.399,-9.494 3.888,-11.646 l 34.712,-17.356 c 4.287,-2.143 9.494,-0.399 11.646,3.888 2.143,4.287 0.399,9.494 -3.888,11.646 L 424.76,77.191 c -1.241,0.616 -2.568,0.911 -3.87,0.911"
   id="path2" />
		<path
   style="fill:#7383bf"
   d="m 420.881,190.915 c -4.79,0 -8.678,-3.888 -8.678,-8.678 V 69.424 c 0,-4.79 3.888,-8.678 8.678,-8.678 4.79,0 8.678,3.888 8.678,8.678 v 112.814 c 0,4.79 -3.887,8.677 -8.678,8.677"
   id="path4" />
		<path
   style="fill:#7383bf"
   d="m 481.627,512 c -4.79,0 -8.678,-3.888 -8.678,-8.678 v -17.356 c 0,-4.79 3.888,-8.678 8.678,-8.678 4.79,0 8.678,3.888 8.678,8.678 v 17.356 c 0,4.79 -3.888,8.678 -8.678,8.678"
   id="path6" />
	</g>
	<path
   style="fill:#edebda"
   d="M 368.814,503.322 H 4.339 V 0 h 286.373 l 34.712,34.712 43.39,43.39 z"
   id="path10" />
	<g
   id="g24">
		<path
   style="fill:#cec9ae"
   d="m 290.712,78.102 h 78.102 L 334.102,43.39 290.712,0 Z"
   id="path12" />
		<path
   style="fill:#cec9ae"
   d="M 290.712,234.305 H 82.441 c -4.79,0 -8.678,-3.888 -8.678,-8.678 0,-4.79 3.888,-8.678 8.678,-8.678 h 208.271 c 4.79,0 8.678,3.888 8.678,8.678 0,4.79 -3.888,8.678 -8.678,8.678"
   id="path14" />
		<path
   style="fill:#cec9ae"
   d="M 256,286.373 H 117.153 c -4.79,0 -8.678,-3.888 -8.678,-8.678 0,-4.79 3.888,-8.678 8.678,-8.678 H 256 c 4.79,0 8.678,3.888 8.678,8.678 0,4.79 -3.888,8.678 -8.678,8.678"
   id="path16" />
		<path
   style="fill:#cec9ae"
   d="M 290.712,338.441 H 82.441 c -4.79,0 -8.678,-3.888 -8.678,-8.678 0,-4.79 3.888,-8.678 8.678,-8.678 h 208.271 c 4.79,0 8.678,3.888 8.678,8.678 0,4.79 -3.888,8.678 -8.678,8.678"
   id="path18" />
		<path
   style="fill:#cec9ae"
   d="M 256,390.508 H 117.153 c -4.79,0 -8.678,-3.888 -8.678,-8.678 0,-4.79 3.888,-8.678 8.678,-8.678 H 256 c 4.79,0 8.678,3.888 8.678,8.678 0,4.791 -3.888,8.678 -8.678,8.678"
   id="path20" />
		<path
   style="fill:#cec9ae"
   d="M 256,182.237 H 117.153 c -4.79,0 -8.678,-3.888 -8.678,-8.678 0,-4.79 3.888,-8.678 8.678,-8.678 H 256 c 4.79,0 8.678,3.888 8.678,8.678 0,4.79 -3.888,8.678 -8.678,8.678"
   id="path22" />
	</g>
	<path
   style="fill:#424a60"
   d="m 455.593,433.898 h 52.068 V 43.39 h -52.068 z"
   id="path26" />
	<path
   style="fill:#7383bf"
   d="M 498.983,43.39 H 464.271 V 13.017 C 464.271,5.823 470.094,0 477.288,0 h 8.678 c 7.194,0 13.017,5.823 13.017,13.017 z"
   id="path28" />
	<path
   style="fill:#424a60"
   d="m 490.305,485.966 h -17.356 l -17.356,-52.068 h 52.068 z"
   id="path30" />
	<g
   id="g40">
		<path
   style="fill:#7383bf"
   d="m 455.593,433.898 h 52.068 V 295.051 h -52.068 z"
   id="path32" />
		<path
   style="fill:#7383bf"
   d="m 455.593,399.186 h 52.068"
   id="path34" />
		<path
   style="fill:#7383bf"
   d="m 455.593,364.475 h 52.068"
   id="path36" />
		<path
   style="fill:#7383bf"
   d="m 455.593,329.763 h 52.068"
   id="path38" />
	</g>
</g>
</svg>
