<?xml version="1.0" encoding="UTF-8" standalone="no"?>
<svg
   version="1.0"
   width="720pt"
   height="640pt"
   viewBox="0 0 720 640"
   xmlns="http://www.w3.org/2000/svg">
  <g
     transform="matrix(0.1,0,0,-0.1,0,640)"
     fill="#2196f3"
     stroke="none"
     id="g16">
    <g
       id="g307"
       transform="translate(-2760)">
      <path
         d="m 6240,5979 c -453,-44 -885,-287 -1161,-654 -170,-226 -272,-474 -315,-769 -21,-142 -14,-395 15,-538 63,-311 212,-595 430,-821 326,-338 726,-509 1191,-509 465,0 865,171 1191,509 176,183 299,387 379,631 60,187 75,286 75,512 -1,206 -11,289 -59,455 -168,581 -652,1031 -1243,1154 -180,38 -330,47 -503,30 z"
         id="path4" />
      <path
         d="m 5660,2573 c -22,-2 -92,-13 -155,-24 C 4709,2410 3931,1791 3505,955 3421,791 3295,472 3295,423 c 0,-11 520,-13 3090,-13 2570,0 3090,2 3090,13 0,49 -126,368 -210,532 -352,689 -947,1240 -1610,1488 -123,46 -247,80 -390,108 -112,23 -131,23 -840,25 -399,0 -743,-1 -765,-3 z"
         id="path10" />
    </g>
  </g>
</svg>
