<?xml version="1.0" encoding="UTF-8" standalone="no"?>
<svg
   version="1.0"
   width="1280pt"
   height="640pt"
   viewBox="0 0 1280 640"
   xmlns="http://www.w3.org/2000/svg">
  <g
     id="g3864">
    <path
       d="m 624,42.1 c -45.3,4.4 -88.5,28.7 -116.1,65.4 -17,22.6 -27.2,47.4 -31.5,76.9 -2.1,14.2 -1.4,39.5 1.5,53.8 6.3,31.1 21.2,59.5 43,82.1 32.6,33.8 72.6,50.9 119.1,50.9 46.5,0 86.5,-17.1 119.1,-50.9 17.6,-18.3 29.9,-38.7 37.9,-63.1 6,-18.7 7.5,-28.6 7.5,-51.2 -0.1,-20.6 -1.1,-28.9 -5.9,-45.5 C 781.8,102.4 733.4,57.4 674.3,45.1 c -18,-3.8 -33,-4.7 -50.3,-3 z"
       id="path4"
       style="fill:#2196f3;stroke:none;stroke-width:0.1" />
    <path
       d="m 229.5,162.1 c -10.2,1 -23.1,4.1 -32.8,7.9 -36.5,14 -65.1,44.3 -77.1,81.5 -8,25 -8,54.2 0.1,79 9.2,28.1 27,51.7 51.5,68.3 13,8.9 33.2,16.8 49.9,19.7 11.8,2.1 32,2.1 43.8,0 53.6,-9.3 96,-51.4 105.6,-105.1 2.1,-11.5 2.1,-33.2 0.1,-44.6 -10.4,-58 -56.7,-100.8 -115.5,-106.7 -11.4,-1.2 -14,-1.2 -25.6,0 z"
       id="path6"
       style="fill:#215af3;stroke:none;stroke-width:0.1;fill-opacity:1" />
    <path
       d="m 1023.5,162.1 c -14.6,1.5 -32.2,6.7 -45.3,13.3 -10.1,5.1 -24,15.3 -32.7,24.1 -36.6,36.5 -47.7,90.8 -28.7,139.4 16.3,41.4 54,71.9 98.3,79.6 11.8,2.1 32,2.1 43.8,0 16.6,-2.9 37,-10.9 50.1,-19.8 44,-29.8 65.6,-83.2 54.6,-135.2 -1.8,-8.6 -6.9,-23.1 -10.6,-30.6 -5.4,-10.7 -15.5,-24.5 -24.5,-33.4 -21.5,-21.6 -48.6,-34.3 -79.4,-37.4 -11.4,-1.2 -14,-1.2 -25.6,0 z"
       id="path8"
       style="fill:#215af3;stroke:none;stroke-width:0.1;fill-opacity:1" />
    <path
       d="m 567.5,382.7 c -2.2,0.2 -9.2,1.3 -15.5,2.4 -79.6,13.9 -157.4,75.8 -200,159.4 -8.4,16.4 -21,48.3 -21,53.2 0,1.1 52,1.3 309,1.3 257,0 309,-0.2 309,-1.3 0,-4.9 -12.6,-36.8 -21,-53.2 -35.2,-68.9 -94.7,-124 -161,-148.8 -12.3,-4.6 -24.7,-8 -39,-10.8 -11.2,-2.3 -13.1,-2.3 -84,-2.5 -39.9,0 -74.3,0.1 -76.5,0.3 z"
       id="path10"
       style="fill:#2196f3;stroke:none;stroke-width:0.1" />
    <path
       d="m 182,429.7 c -27.9,4.7 -52,13.5 -74,27 C 66.9,482 31.8,522.2 12,566.8 8.1,575.5 0,597 0,598.6 c 0,0.2 70.2,0.4 156,0.4 124,0 156.1,-0.3 156.4,-1.2 0.2,-0.7 2,-6.7 4.1,-13.3 12.1,-38.8 35.1,-80.6 61.6,-112.2 4.4,-5.1 7.9,-9.5 7.9,-9.8 0,-1.2 -15.1,-10.1 -26.3,-15.5 -14.6,-7 -28.6,-12 -42.8,-15.1 -10.2,-2.3 -11.4,-2.4 -71.4,-2.5 -33.5,-0.1 -62.1,0 -63.5,0.3 z"
       id="path12"
       style="fill:#215af3;stroke:none;stroke-width:0.1;fill-opacity:1" />
    <path
       d="m 976,429.6 c -22.3,3.8 -36.6,8.2 -54.6,16.9 -12.2,5.8 -27.4,14.7 -27.4,16 0,0.4 2.6,3.6 5.8,7.3 29.8,34.8 55.7,83.6 67.8,127.9 0.3,1 32.4,1.3 156.4,1.3 85.8,0 156,-0.2 156,-0.4 0,-0.2 -1.6,-5.1 -3.6,-10.8 -13.2,-37.9 -35.3,-72.3 -64.1,-99.8 -29.7,-28.4 -64.5,-47.7 -101.3,-56.2 -9.2,-2.1 -11.6,-2.2 -71,-2.4 -33.8,-0.1 -62.6,0 -64,0.2 z"
       id="path14"
       style="fill:#215af3;stroke:none;stroke-width:0.1;fill-opacity:1" />
  </g>
</svg>
